<svg xmlns="http://www.w3.org/2000/svg" xmlns:xlink="http://www.w3.org/1999/xlink" width="128" height="128" viewBox="0 0 128 128">
  <g>
    <circle cx="64" cy="64" r="64" fill="#990080"/>
    <path d="M9.625,67.375A9.625,9.625,0,0,1,0,57.75V16.844A7.219,7.219,0,0,1,7.219,9.625V55.344a4.812,4.812,0,0,0,4.812,4.812H81.813a7.219,7.219,0,0,1-7.219,7.219Zm11.685-14.42A6.72,6.72,0,0,1,14.5,46.336V33.1a6.622,6.622,0,1,0,0-13.238V6.62A6.72,6.72,0,0,1,21.309,0H89.437A6.719,6.719,0,0,1,96.25,6.62V19.859a6.622,6.622,0,1,0,0,13.238V46.336a6.719,6.719,0,0,1-6.813,6.619Zm6.813-40.82V40.819a3.36,3.36,0,0,0,3.406,3.31h47.69a3.361,3.361,0,0,0,3.407-3.31V12.136a3.36,3.36,0,0,0-3.407-3.309H31.528A3.359,3.359,0,0,0,28.122,12.136Zm4.541,27.581V13.239H78.082V39.716Z" transform="translate(15.875 30.313)" fill="#fff"/>
  </g>
</svg>
