<svg xmlns="http://www.w3.org/2000/svg" xmlns:xlink="http://www.w3.org/1999/xlink" width="16" height="16" viewBox="0 0 16 16">
  <path d="M1.6,11.2A1.6,1.6,0,0,1,0,9.6V2.8A1.2,1.2,0,0,1,1.2,1.6V9.2A.8.8,0,0,0,2,10H13.6a1.2,1.2,0,0,1-1.2,1.2ZM3.542,8.8A1.117,1.117,0,0,1,2.41,7.7V5.5a1.1,1.1,0,1,0,0-2.2V1.1A1.117,1.117,0,0,1,3.542,0H14.867A1.117,1.117,0,0,1,16,1.1V3.3a1.1,1.1,0,1,0,0,2.2V7.7a1.117,1.117,0,0,1-1.133,1.1ZM4.675,2.017V6.786a.559.559,0,0,0,.566.55h7.928a.559.559,0,0,0,.566-.55V2.017a.559.559,0,0,0-.566-.55H5.241A.558.558,0,0,0,4.675,2.017ZM5.43,6.6V2.2h7.55V6.6Z" transform="translate(0 2.4)" fill="currentColor"/>
</svg>
